<mxfile host="app.diagrams.net" modified="2022-04-14T15:17:06.239Z" agent="5.0 (Macintosh; Intel Mac OS X 10_15_7) AppleWebKit/605.1.15 (KHTML, like Gecko) Version/15.4 Safari/605.1.15" etag="VWfdmKlEt7WJp2IC8whN" version="17.4.3" type="github">
  <diagram name="Page-1" id="8378b5f6-a2b2-b727-a746-972ab9d02e00">
    <mxGraphModel dx="1188" dy="668" grid="1" gridSize="10" guides="1" tooltips="1" connect="0" arrows="1" fold="1" page="1" pageScale="1.5" pageWidth="1169" pageHeight="827" background="none" math="0" shadow="0">
      <root>
        <mxCell id="0" />
        <mxCell id="1" parent="0" />
        <mxCell id="63" value="1" style="strokeColor=default;" parent="1" vertex="1">
          <mxGeometry x="86.5" y="380" width="40" height="20" as="geometry" />
        </mxCell>
        <mxCell id="64" value="요구사항 분석 -실사용자, 내부 시스템 인터페이스" style="align=left;strokeColor=default;" parent="1" vertex="1">
          <mxGeometry x="126.5" y="380" width="320" height="20" as="geometry" />
        </mxCell>
        <mxCell id="65" value="7 days" style="strokeColor=default;" parent="1" vertex="1">
          <mxGeometry x="446.50000000000176" y="380" width="80.00000000000028" height="20" as="geometry" />
        </mxCell>
        <mxCell id="66" value="22.03.29" style="strokeColor=default;" parent="1" vertex="1">
          <mxGeometry x="526.500000000002" y="380" width="80.00000000000028" height="20" as="geometry" />
        </mxCell>
        <mxCell id="67" value="22.04.04" style="strokeColor=default;" parent="1" vertex="1">
          <mxGeometry x="606.5000000000016" y="380.0000000000002" width="80.00000000000028" height="20" as="geometry" />
        </mxCell>
        <mxCell id="69" value="2" style="strokeColor=default;" parent="1" vertex="1">
          <mxGeometry x="86.50000000000026" y="399.9999999999999" width="40" height="20" as="geometry" />
        </mxCell>
        <mxCell id="70" value="고객의 요구사항 피드백 입수" style="align=left;strokeColor=default;" parent="1" vertex="1">
          <mxGeometry x="126.50000000000026" y="399.9999999999999" width="319.9999999999998" height="20" as="geometry" />
        </mxCell>
        <mxCell id="71" value="5 days" style="strokeColor=default;" parent="1" vertex="1">
          <mxGeometry x="446.500000000002" y="399.99999999999983" width="80.00000000000028" height="20" as="geometry" />
        </mxCell>
        <mxCell id="72" value="22.04.05" style="strokeColor=default;" parent="1" vertex="1">
          <mxGeometry x="526.5000000000023" y="399.99999999999983" width="80.00000000000028" height="20" as="geometry" />
        </mxCell>
        <mxCell id="73" value="22.04.10" style="strokeColor=default;" parent="1" vertex="1">
          <mxGeometry x="606.5000000000018" y="400.0000000000001" width="80.00000000000028" height="20" as="geometry" />
        </mxCell>
        <mxCell id="74" value="3" style="strokeColor=default;" parent="1" vertex="1">
          <mxGeometry x="86.50000000000027" y="419.9999999999998" width="40" height="20" as="geometry" />
        </mxCell>
        <mxCell id="75" value="요구사항 추출 - 기능, 비기능" style="align=left;strokeColor=default;" parent="1" vertex="1">
          <mxGeometry x="126.50000000000027" y="419.9999999999998" width="319.9999999999997" height="20.000000000000014" as="geometry" />
        </mxCell>
        <mxCell id="76" value="6 days" style="strokeColor=default;" parent="1" vertex="1">
          <mxGeometry x="446.500000000002" y="419.9999999999997" width="80.00000000000028" height="20" as="geometry" />
        </mxCell>
        <mxCell id="77" value="22.04.11" style="strokeColor=default;" parent="1" vertex="1">
          <mxGeometry x="526.5000000000023" y="419.9999999999997" width="80.00000000000028" height="20" as="geometry" />
        </mxCell>
        <mxCell id="78" value="22.04.17" style="strokeColor=default;" parent="1" vertex="1">
          <mxGeometry x="606.5000000000018" y="420" width="80.00000000000028" height="20" as="geometry" />
        </mxCell>
        <mxCell id="79" value="4" style="strokeColor=default;" parent="1" vertex="1">
          <mxGeometry x="86.5" y="440.00000000000017" width="40" height="20" as="geometry" />
        </mxCell>
        <mxCell id="80" value="요구사항 명세 - 모든 요구사항, 비용, 완성도, 기간" style="align=left;strokeColor=default;" parent="1" vertex="1">
          <mxGeometry x="126.5" y="440.00000000000017" width="320" height="20" as="geometry" />
        </mxCell>
        <mxCell id="81" value="7 days" style="strokeColor=default;" parent="1" vertex="1">
          <mxGeometry x="446.5000000000017" y="440.0000000000001" width="80.00000000000028" height="20" as="geometry" />
        </mxCell>
        <mxCell id="82" value="22.04.18" style="strokeColor=default;" parent="1" vertex="1">
          <mxGeometry x="526.500000000002" y="440.0000000000001" width="80.00000000000028" height="20" as="geometry" />
        </mxCell>
        <mxCell id="83" value="22.04.25" style="strokeColor=default;" parent="1" vertex="1">
          <mxGeometry x="606.5000000000015" y="440.0000000000004" width="80.00000000000028" height="20" as="geometry" />
        </mxCell>
        <mxCell id="84" value="5" style="strokeColor=default;" parent="1" vertex="1">
          <mxGeometry x="86.49999999999991" y="460.00000000000017" width="40" height="20" as="geometry" />
        </mxCell>
        <mxCell id="85" value="요구사항 검증 - 사용자 요구사항 충족, 구현, 충돌, 변경 가능성" style="align=left;strokeColor=default;" parent="1" vertex="1">
          <mxGeometry x="126.49999999999991" y="460.00000000000017" width="320.0000000000001" height="20" as="geometry" />
        </mxCell>
        <mxCell id="86" value="7 days" style="strokeColor=default;" parent="1" vertex="1">
          <mxGeometry x="446.50000000000165" y="460.0000000000001" width="80.00000000000028" height="20" as="geometry" />
        </mxCell>
        <mxCell id="87" value="22.04.25" style="strokeColor=default;" parent="1" vertex="1">
          <mxGeometry x="526.5000000000019" y="460.0000000000001" width="80.00000000000028" height="20" as="geometry" />
        </mxCell>
        <mxCell id="88" value="22.05.01" style="strokeColor=default;" parent="1" vertex="1">
          <mxGeometry x="606.5000000000015" y="460.0000000000004" width="80.00000000000028" height="20" as="geometry" />
        </mxCell>
        <mxCell id="89" value="6" style="strokeColor=default;" parent="1" vertex="1">
          <mxGeometry x="86.4999999999999" y="480.00000000000045" width="40" height="20" as="geometry" />
        </mxCell>
        <mxCell id="90" value="디자인 - 상위 설계 : 시스템 전체적 구조, 데이터 및 UI 설계" style="align=left;strokeColor=default;" parent="1" vertex="1">
          <mxGeometry x="126.4999999999999" y="480.00000000000045" width="320.0000000000001" height="20" as="geometry" />
        </mxCell>
        <mxCell id="91" value="7 days" style="strokeColor=default;" parent="1" vertex="1">
          <mxGeometry x="446.50000000000165" y="480.00000000000034" width="80.00000000000028" height="20" as="geometry" />
        </mxCell>
        <mxCell id="92" value="22.05.02" style="strokeColor=default;" parent="1" vertex="1">
          <mxGeometry x="526.5000000000019" y="480.00000000000034" width="80.00000000000028" height="20" as="geometry" />
        </mxCell>
        <mxCell id="93" value="22.05.09" style="strokeColor=default;" parent="1" vertex="1">
          <mxGeometry x="606.5000000000015" y="480.0000000000007" width="80.00000000000028" height="20" as="geometry" />
        </mxCell>
        <mxCell id="94" value="7" style="strokeColor=default;" parent="1" vertex="1">
          <mxGeometry x="86.50000000000063" y="500.0000000000007" width="40" height="20" as="geometry" />
        </mxCell>
        <mxCell id="95" value="디자인 - 하위 설계 : 내부 알고리즘 설계" style="align=left;strokeColor=default;" parent="1" vertex="1">
          <mxGeometry x="126.50000000000063" y="500.0000000000007" width="319.9999999999994" height="20" as="geometry" />
        </mxCell>
        <mxCell id="96" value="7 days" style="strokeColor=default;" parent="1" vertex="1">
          <mxGeometry x="446.5000000000024" y="500.0000000000007" width="80.00000000000028" height="20" as="geometry" />
        </mxCell>
        <mxCell id="97" value="22.05.10" style="strokeColor=default;" parent="1" vertex="1">
          <mxGeometry x="526.5000000000027" y="500.0000000000007" width="80.00000000000028" height="20" as="geometry" />
        </mxCell>
        <mxCell id="98" value="22.05.16" style="strokeColor=default;" parent="1" vertex="1">
          <mxGeometry x="606.5000000000022" y="500.0000000000009" width="80.00000000000028" height="20" as="geometry" />
        </mxCell>
        <mxCell id="99" value="8" style="strokeColor=default;" parent="1" vertex="1">
          <mxGeometry x="86.50000000000064" y="520.0000000000006" width="40" height="20" as="geometry" />
        </mxCell>
        <mxCell id="100" value="구현 및 테스트" style="align=left;strokeColor=default;" parent="1" vertex="1">
          <mxGeometry x="126.50000000000064" y="520.0000000000006" width="319.9999999999994" height="20" as="geometry" />
        </mxCell>
        <mxCell id="101" value="14 days" style="strokeColor=default;" parent="1" vertex="1">
          <mxGeometry x="446.5000000000024" y="520.0000000000006" width="80.00000000000028" height="20" as="geometry" />
        </mxCell>
        <mxCell id="102" value="22.05.17" style="strokeColor=default;" parent="1" vertex="1">
          <mxGeometry x="526.5000000000027" y="520.0000000000006" width="80.00000000000028" height="20" as="geometry" />
        </mxCell>
        <mxCell id="103" value="22.05.30" style="strokeColor=default;" parent="1" vertex="1">
          <mxGeometry x="606.5000000000022" y="520.0000000000008" width="80.00000000000028" height="20" as="geometry" />
        </mxCell>
        <mxCell id="2" value="Task Name" style="fillColor=#23445D;strokeColor=default;strokeWidth=2;fontColor=#FFFFFF;fontStyle=1" parent="1" vertex="1">
          <mxGeometry x="126.5" y="320" width="320" height="60" as="geometry" />
        </mxCell>
        <mxCell id="3" value="" style="fillColor=#23445D;strokeColor=default;strokeWidth=2;fontColor=#FFFFFF;fontStyle=1" parent="1" vertex="1">
          <mxGeometry x="86.5" y="320" width="40" height="60" as="geometry" />
        </mxCell>
        <mxCell id="12" value="Duration" style="fillColor=#23445D;strokeColor=default;strokeWidth=2;fontColor=#FFFFFF;fontStyle=1" parent="1" vertex="1">
          <mxGeometry x="446.5" y="320" width="80" height="60" as="geometry" />
        </mxCell>
        <mxCell id="13" value="Start" style="fillColor=#23445D;strokeColor=default;strokeWidth=2;fontColor=#FFFFFF;fontStyle=1" parent="1" vertex="1">
          <mxGeometry x="526.5" y="320" width="80" height="60" as="geometry" />
        </mxCell>
        <mxCell id="14" value="ETA" style="fillColor=#23445D;strokeColor=default;strokeWidth=2;fontColor=#FFFFFF;fontStyle=1" parent="1" vertex="1">
          <mxGeometry x="606.5" y="320" width="80" height="60" as="geometry" />
        </mxCell>
        <mxCell id="A925nZ6R7FKqadm6awqx-327" value="" style="strokeColor=#DEEDFF" parent="1" vertex="1">
          <mxGeometry x="686.5" y="380" width="20" height="180" as="geometry" />
        </mxCell>
        <mxCell id="A925nZ6R7FKqadm6awqx-328" value="" style="strokeColor=#DEEDFF" parent="1" vertex="1">
          <mxGeometry x="706.5" y="380" width="20" height="180" as="geometry" />
        </mxCell>
        <mxCell id="A925nZ6R7FKqadm6awqx-329" value="" style="strokeColor=#DEEDFF" parent="1" vertex="1">
          <mxGeometry x="726.5" y="380" width="20" height="180" as="geometry" />
        </mxCell>
        <mxCell id="A925nZ6R7FKqadm6awqx-330" value="" style="strokeColor=#DEEDFF" parent="1" vertex="1">
          <mxGeometry x="746.5" y="380" width="20" height="180" as="geometry" />
        </mxCell>
        <mxCell id="A925nZ6R7FKqadm6awqx-331" value="" style="strokeColor=#DEEDFF" parent="1" vertex="1">
          <mxGeometry x="766.5" y="380" width="20" height="180" as="geometry" />
        </mxCell>
        <mxCell id="A925nZ6R7FKqadm6awqx-440" value="2022" style="fillColor=#23445D;strokeColor=#FFFFFF;strokeWidth=2;fontColor=#FFFFFF;fontStyle=1" parent="1" vertex="1">
          <mxGeometry x="686.5" y="320" width="323.5" height="30" as="geometry" />
        </mxCell>
        <mxCell id="A925nZ6R7FKqadm6awqx-441" value="March" style="fillColor=#23445D;strokeColor=#FFFFFF;strokeWidth=2;fontColor=#FFFFFF;fontStyle=1" parent="1" vertex="1">
          <mxGeometry x="686.5" y="350" width="80" height="30" as="geometry" />
        </mxCell>
        <mxCell id="A925nZ6R7FKqadm6awqx-442" value="April" style="fillColor=#23445D;strokeColor=#FFFFFF;strokeWidth=2;fontColor=#FFFFFF;fontStyle=1" parent="1" vertex="1">
          <mxGeometry x="766.5" y="350" width="80" height="30" as="geometry" />
        </mxCell>
        <mxCell id="A925nZ6R7FKqadm6awqx-443" value="May" style="fillColor=#23445D;strokeColor=#FFFFFF;strokeWidth=2;fontColor=#FFFFFF;fontStyle=1" parent="1" vertex="1">
          <mxGeometry x="846.5" y="350" width="83.5" height="30" as="geometry" />
        </mxCell>
        <mxCell id="A925nZ6R7FKqadm6awqx-444" value="June" style="fillColor=#23445D;strokeColor=#FFFFFF;strokeWidth=2;fontColor=#FFFFFF;fontStyle=1" parent="1" vertex="1">
          <mxGeometry x="930" y="350" width="80" height="30" as="geometry" />
        </mxCell>
        <mxCell id="A925nZ6R7FKqadm6awqx-472" value="" style="strokeColor=#DEEDFF" parent="1" vertex="1">
          <mxGeometry x="986.5" y="380" width="20" height="180" as="geometry" />
        </mxCell>
        <mxCell id="A925nZ6R7FKqadm6awqx-473" value="" style="strokeColor=#DEEDFF" parent="1" vertex="1">
          <mxGeometry x="786.5" y="380" width="20" height="180" as="geometry" />
        </mxCell>
        <mxCell id="A925nZ6R7FKqadm6awqx-474" value="" style="strokeColor=#DEEDFF" parent="1" vertex="1">
          <mxGeometry x="806.5" y="380" width="20" height="180" as="geometry" />
        </mxCell>
        <mxCell id="A925nZ6R7FKqadm6awqx-475" value="" style="strokeColor=#DEEDFF" parent="1" vertex="1">
          <mxGeometry x="826.5" y="380" width="20" height="180" as="geometry" />
        </mxCell>
        <mxCell id="A925nZ6R7FKqadm6awqx-476" value="" style="strokeColor=#DEEDFF" parent="1" vertex="1">
          <mxGeometry x="846.5" y="380" width="20" height="180" as="geometry" />
        </mxCell>
        <mxCell id="A925nZ6R7FKqadm6awqx-477" value="" style="strokeColor=#DEEDFF" parent="1" vertex="1">
          <mxGeometry x="866.5" y="380" width="20" height="180" as="geometry" />
        </mxCell>
        <mxCell id="A925nZ6R7FKqadm6awqx-478" value="" style="strokeColor=#DEEDFF" parent="1" vertex="1">
          <mxGeometry x="886.5" y="380" width="20" height="180" as="geometry" />
        </mxCell>
        <mxCell id="A925nZ6R7FKqadm6awqx-479" value="" style="strokeColor=#DEEDFF" parent="1" vertex="1">
          <mxGeometry x="906.5" y="380" width="20" height="180" as="geometry" />
        </mxCell>
        <mxCell id="A925nZ6R7FKqadm6awqx-480" value="" style="strokeColor=#DEEDFF" parent="1" vertex="1">
          <mxGeometry x="926.5" y="380" width="20" height="180" as="geometry" />
        </mxCell>
        <mxCell id="A925nZ6R7FKqadm6awqx-481" value="" style="strokeColor=#DEEDFF" parent="1" vertex="1">
          <mxGeometry x="946.5" y="380" width="20" height="180" as="geometry" />
        </mxCell>
        <mxCell id="A925nZ6R7FKqadm6awqx-482" value="" style="strokeColor=#DEEDFF" parent="1" vertex="1">
          <mxGeometry x="966.5" y="380" width="20" height="180" as="geometry" />
        </mxCell>
        <mxCell id="A925nZ6R7FKqadm6awqx-483" value="" style="rounded=0;whiteSpace=wrap;html=1;labelBackgroundColor=none;fillColor=#425BFF;" parent="1" vertex="1">
          <mxGeometry x="686.5" y="380" width="83.5" height="20" as="geometry" />
        </mxCell>
        <mxCell id="A925nZ6R7FKqadm6awqx-485" value="" style="rounded=0;whiteSpace=wrap;html=1;labelBackgroundColor=none;fillColor=#425BFF;" parent="1" vertex="1">
          <mxGeometry x="770" y="400" width="20" height="20" as="geometry" />
        </mxCell>
        <mxCell id="5OhmdpWQQGVqoMQIDBhA-103" value="9" style="strokeColor=default;" vertex="1" parent="1">
          <mxGeometry x="86.50000000000064" y="540.0000000000006" width="40" height="20" as="geometry" />
        </mxCell>
        <mxCell id="5OhmdpWQQGVqoMQIDBhA-104" value="유지 보수" style="align=left;strokeColor=default;" vertex="1" parent="1">
          <mxGeometry x="126.50000000000063" y="540.0000000000006" width="319.9999999999994" height="20" as="geometry" />
        </mxCell>
        <mxCell id="5OhmdpWQQGVqoMQIDBhA-105" value="7 days" style="strokeColor=default;" vertex="1" parent="1">
          <mxGeometry x="446.5000000000024" y="540.0000000000006" width="80.00000000000028" height="20" as="geometry" />
        </mxCell>
        <mxCell id="5OhmdpWQQGVqoMQIDBhA-106" value="22.05.31" style="strokeColor=default;" vertex="1" parent="1">
          <mxGeometry x="526.5000000000027" y="540.0000000000006" width="80.00000000000028" height="20" as="geometry" />
        </mxCell>
        <mxCell id="5OhmdpWQQGVqoMQIDBhA-107" value="22.06.06" style="strokeColor=default;" vertex="1" parent="1">
          <mxGeometry x="606.5000000000022" y="540.0000000000008" width="80.00000000000028" height="20" as="geometry" />
        </mxCell>
        <mxCell id="5OhmdpWQQGVqoMQIDBhA-109" value="" style="rounded=0;whiteSpace=wrap;html=1;labelBackgroundColor=none;fillColor=#425BFF;" vertex="1" parent="1">
          <mxGeometry x="790" y="420" width="20" height="20" as="geometry" />
        </mxCell>
        <mxCell id="5OhmdpWQQGVqoMQIDBhA-110" value="" style="rounded=0;whiteSpace=wrap;html=1;labelBackgroundColor=none;fillColor=#425BFF;" vertex="1" parent="1">
          <mxGeometry x="810" y="440" width="20" height="20" as="geometry" />
        </mxCell>
        <mxCell id="5OhmdpWQQGVqoMQIDBhA-111" value="" style="rounded=0;whiteSpace=wrap;html=1;labelBackgroundColor=none;fillColor=#425BFF;" vertex="1" parent="1">
          <mxGeometry x="830" y="460" width="20" height="20" as="geometry" />
        </mxCell>
        <mxCell id="5OhmdpWQQGVqoMQIDBhA-112" value="" style="rounded=0;whiteSpace=wrap;html=1;labelBackgroundColor=none;fillColor=#425BFF;" vertex="1" parent="1">
          <mxGeometry x="850" y="480" width="20" height="20" as="geometry" />
        </mxCell>
        <mxCell id="5OhmdpWQQGVqoMQIDBhA-113" value="" style="rounded=0;whiteSpace=wrap;html=1;labelBackgroundColor=none;fillColor=#425BFF;" vertex="1" parent="1">
          <mxGeometry x="870" y="500" width="20" height="20" as="geometry" />
        </mxCell>
        <mxCell id="5OhmdpWQQGVqoMQIDBhA-114" value="" style="rounded=0;whiteSpace=wrap;html=1;labelBackgroundColor=none;fillColor=#425BFF;" vertex="1" parent="1">
          <mxGeometry x="890" y="520" width="40" height="20" as="geometry" />
        </mxCell>
        <mxCell id="5OhmdpWQQGVqoMQIDBhA-115" value="" style="rounded=0;whiteSpace=wrap;html=1;labelBackgroundColor=none;fillColor=#425BFF;" vertex="1" parent="1">
          <mxGeometry x="930" y="540" width="20" height="20" as="geometry" />
        </mxCell>
      </root>
    </mxGraphModel>
  </diagram>
</mxfile>
